<svg width="16" height="14" viewBox="0 0 16 14" fill="none" xmlns="http://www.w3.org/2000/svg">
<path d="M0.195879 6.52838L6.19554 0.528715C6.32063 0.403628 6.49028 0.333355 6.66718 0.333355C6.84408 0.333355 7.01374 0.403628 7.13883 0.528715C7.26391 0.653802 7.33419 0.823456 7.33419 1.00036C7.33419 1.17726 7.26391 1.34691 7.13883 1.472L2.2766 6.33339L15.3334 6.33339C15.5102 6.33339 15.6797 6.40362 15.8047 6.52864C15.9298 6.65366 16 6.82322 16 7.00002C16 7.17682 15.9298 7.34638 15.8047 7.4714C15.6797 7.59642 15.5102 7.66665 15.3334 7.66665L2.2766 7.66665L7.13883 12.528C7.26391 12.6531 7.33419 12.8228 7.33419 12.9997C7.33419 13.1766 7.26391 13.3462 7.13883 13.4713C7.01374 13.5964 6.84409 13.6667 6.66719 13.6667C6.49029 13.6667 6.32063 13.5964 6.19555 13.4713L0.195879 7.47166C0.133898 7.40975 0.0847271 7.33623 0.0511797 7.2553C0.0176323 7.17438 0.000366014 7.08763 0.000365999 7.00002C0.000365984 6.91242 0.0176322 6.82567 0.0511796 6.74474C0.084727 6.66382 0.133897 6.59029 0.195879 6.52838Z" fill="#181818"/>
</svg>
